<svg width="49" height="48" viewBox="0 0 49 48" fill="none" xmlns="http://www.w3.org/2000/svg">
<g filter="url(#filter0_d)">
<path d="M19.7274 36C20.606 36 21.3183 35.2751 21.3183 34.3809C21.3183 33.4868 20.606 32.7619 19.7274 32.7619C18.8487 32.7619 18.1365 33.4868 18.1365 34.3809C18.1365 35.2751 18.8487 36 19.7274 36Z" fill="black" stroke="black" stroke-width="3" stroke-linecap="round" stroke-linejoin="round"/>
<path d="M37.2274 36C38.106 36 38.8183 35.2751 38.8183 34.3809C38.8183 33.4868 38.106 32.7619 37.2274 32.7619C36.3487 32.7619 35.6365 33.4868 35.6365 34.3809C35.6365 35.2751 36.3487 36 37.2274 36Z" fill="black" stroke="black" stroke-width="3" stroke-linecap="round" stroke-linejoin="round"/>
<path d="M7 2H13.3636L17.6273 23.679C17.7728 24.4245 18.1712 25.094 18.7529 25.5706C19.3346 26.0471 20.0625 26.3003 20.8091 26.2857H36.2727C37.0193 26.3003 37.7472 26.0471 38.3289 25.5706C38.9106 25.094 39.3091 24.4245 39.4545 23.679L42 10.0952H14.9545" stroke="black" stroke-width="3" stroke-linecap="round" stroke-linejoin="round"/>
</g>
<defs>
<filter id="filter0_d" x="0.5" y="0.5" width="48" height="47" filterUnits="userSpaceOnUse" color-interpolation-filters="sRGB">
<feFlood flood-opacity="0" result="BackgroundImageFix"/>
<feColorMatrix in="SourceAlpha" type="matrix" values="0 0 0 0 0 0 0 0 0 0 0 0 0 0 0 0 0 0 127 0"/>
<feOffset dy="5"/>
<feGaussianBlur stdDeviation="2.5"/>
<feColorMatrix type="matrix" values="0 0 0 0 0 0 0 0 0 0 0 0 0 0 0 0 0 0 0.5 0"/>
<feBlend mode="normal" in2="BackgroundImageFix" result="effect1_dropShadow"/>
<feBlend mode="normal" in="SourceGraphic" in2="effect1_dropShadow" result="shape"/>
</filter>
</defs>
</svg>
