<svg width="32" height="28" viewBox="0 0 32 28" fill="none" xmlns="http://www.w3.org/2000/svg">
<path d="M21.4546 1H1V19.7778H21.4546V1Z" stroke="black" stroke-width="2" stroke-linecap="round" stroke-linejoin="round"/>
<path d="M21.4546 8.22223H26.9092L31.0001 12.5556V19.7778H21.4546V8.22223Z" stroke="black" stroke-width="2" stroke-linecap="round" stroke-linejoin="round"/>
<path d="M7.1364 27C9.01919 27 10.5455 25.3832 10.5455 23.3889C10.5455 21.3945 9.01919 19.7778 7.1364 19.7778C5.2536 19.7778 3.72729 21.3945 3.72729 23.3889C3.72729 25.3832 5.2536 27 7.1364 27Z" stroke="black" stroke-width="2" stroke-linecap="round" stroke-linejoin="round"/>
<path d="M24.8637 27C26.7465 27 28.2728 25.3832 28.2728 23.3889C28.2728 21.3945 26.7465 19.7778 24.8637 19.7778C22.9809 19.7778 21.4546 21.3945 21.4546 23.3889C21.4546 25.3832 22.9809 27 24.8637 27Z" stroke="black" stroke-width="2" stroke-linecap="round" stroke-linejoin="round"/>
</svg>
