<svg width="26" height="26" viewBox="0 0 26 26" fill="none" xmlns="http://www.w3.org/2000/svg">
<path d="M21.6667 2.16669H4.33341C3.1368 2.16669 2.16675 3.13674 2.16675 4.33335V8.66669C2.16675 9.8633 3.1368 10.8334 4.33341 10.8334H21.6667C22.8634 10.8334 23.8334 9.8633 23.8334 8.66669V4.33335C23.8334 3.13674 22.8634 2.16669 21.6667 2.16669Z" stroke="black" stroke-width="2" stroke-linecap="round" stroke-linejoin="round"/>
<path d="M21.6667 15.1667H4.33341C3.1368 15.1667 2.16675 16.1367 2.16675 17.3334V21.6667C2.16675 22.8633 3.1368 23.8334 4.33341 23.8334H21.6667C22.8634 23.8334 23.8334 22.8633 23.8334 21.6667V17.3334C23.8334 16.1367 22.8634 15.1667 21.6667 15.1667Z" stroke="black" stroke-width="2" stroke-linecap="round" stroke-linejoin="round"/>
<path d="M6.5 6.5H6.51" stroke="black" stroke-width="2" stroke-linecap="round" stroke-linejoin="round"/>
<path d="M6.5 19.5H6.51" stroke="black" stroke-width="2" stroke-linecap="round" stroke-linejoin="round"/>
</svg>
