<svg width="30" height="32" viewBox="0 0 30 32" fill="none" xmlns="http://www.w3.org/2000/svg">
<path d="M22 12.0539L8 4.29907" stroke="black" stroke-width="2" stroke-linecap="round" stroke-linejoin="round"/>
<path d="M29 21.9154V9.96201C28.9994 9.43796 28.8554 8.92327 28.5824 8.46956C28.3094 8.01586 27.9169 7.6391 27.4444 7.37708L16.5556 1.40036C16.0826 1.13808 15.5461 1 15 1C14.4539 1 13.9174 1.13808 13.4444 1.40036L2.55556 7.37708C2.08308 7.6391 1.69064 8.01586 1.41761 8.46956C1.14458 8.92327 1.00056 9.43796 1 9.96201V21.9154C1.00056 22.4395 1.14458 22.9542 1.41761 23.4079C1.69064 23.8616 2.08308 24.2383 2.55556 24.5004L13.4444 30.4771C13.9174 30.7394 14.4539 30.8774 15 30.8774C15.5461 30.8774 16.0826 30.7394 16.5556 30.4771L27.4444 24.5004C27.9169 24.2383 28.3094 23.8616 28.5824 23.4079C28.8554 22.9542 28.9994 22.4395 29 21.9154Z" stroke="black" stroke-width="2" stroke-linecap="round" stroke-linejoin="round"/>
<path d="M1.41992 8.40808L14.9999 15.9537L28.5799 8.40808" stroke="black" stroke-width="2" stroke-linecap="round" stroke-linejoin="round"/>
<path d="M15 31V15.9387" stroke="black" stroke-width="2" stroke-linecap="round" stroke-linejoin="round"/>
</svg>
