<svg width="26" height="31" viewBox="0 0 26 31" fill="none" xmlns="http://www.w3.org/2000/svg">
<path d="M25 12.8636C25 22.0909 13 30 13 30C13 30 1 22.0909 1 12.8636C1 9.7172 2.26428 6.69964 4.51472 4.47478C6.76516 2.24992 9.8174 1 13 1C16.1826 1 19.2348 2.24992 21.4853 4.47478C23.7357 6.69964 25 9.7172 25 12.8636Z" stroke="black" stroke-width="2" stroke-linecap="round" stroke-linejoin="round"/>
<path d="M13.0002 16.8181C15.2094 16.8181 17.0002 15.0476 17.0002 12.8636C17.0002 10.6796 15.2094 8.90906 13.0002 8.90906C10.7911 8.90906 9.00024 10.6796 9.00024 12.8636C9.00024 15.0476 10.7911 16.8181 13.0002 16.8181Z" stroke="black" stroke-width="2" stroke-linecap="round" stroke-linejoin="round"/>
</svg>
