<svg width="118" height="21" viewBox="0 0 118 21" fill="none" xmlns="http://www.w3.org/2000/svg">
<path d="M11 1L14.09 7.25342L21 8.26236L16 13.1272L17.18 20L11 16.7534L4.82 20L6 13.1272L1 8.26236L7.91 7.25342L11 1Z" fill="#FFFF00" stroke="black" stroke-linecap="round" stroke-linejoin="round"/>
<path d="M107 1L110.09 7.25342L117 8.26236L112 13.1272L113.18 20L107 16.7534L100.82 20L102 13.1272L97 8.26236L103.91 7.25342L107 1Z" fill="#9AB3F5" stroke="black" stroke-linecap="round" stroke-linejoin="round"/>
<path d="M83 1L86.09 7.25342L93 8.26236L88 13.1272L89.18 20L83 16.7534L76.82 20L78 13.1272L73 8.26236L79.91 7.25342L83 1Z" fill="#FFFF00" stroke="black" stroke-linecap="round" stroke-linejoin="round"/>
<path d="M59 1L62.09 7.25342L69 8.26236L64 13.1272L65.18 20L59 16.7534L52.82 20L54 13.1272L49 8.26236L55.91 7.25342L59 1Z" fill="#FFFF00" stroke="black" stroke-linecap="round" stroke-linejoin="round"/>
<path d="M35 1L38.09 7.25342L45 8.26236L40 13.1272L41.18 20L35 16.7534L28.82 20L30 13.1272L25 8.26236L31.91 7.25342L35 1Z" fill="#FFFF00" stroke="black" stroke-linecap="round" stroke-linejoin="round"/>
</svg>
